<?xml version="1.0" ?><svg height="104px" version="1.1" viewBox="0 0 104 104" width="104px" xmlns="http://www.w3.org/2000/svg" xmlns:xlink="http://www.w3.org/1999/xlink"><title/><desc/><defs/><g fill="none" fill-rule="evenodd" id="4.Weather" stroke="none" stroke-linecap="round" stroke-linejoin="round" stroke-width="1"><g id="Weather-(Color)" stroke-width="3.5" transform="translate(-1098.000000, -759.000000)"><g id="36-weather-thermometer-cold" transform="translate(1100.000000, 761.000000)"><path d="M31.0999564,62.082904 L31.0999564,10.7107728 C31.0999564,4.79531616 26.3027221,0 20.3848993,0 L20.3848993,0 C14.4670764,0 9.66984213,4.79531616 9.66984213,10.7107728 L9.66984213,62.082904 C3.68196785,65.7892272 -0.244895009,72.5058548 0.0118821343,80.1210773 C0.365887849,90.6185012 8.79033356,99.2128806 19.2832878,99.764637 C31.0416193,100.382904 40.7696307,91.0355972 40.7696307,79.4168618 C40.769865,72.0932084 36.9025107,65.6747073 31.0999564,62.082904 L31.0999564,62.082904 Z" id="Layer-1" stroke="#263238"/><path d="M25.3850495,56 L25.3850495,65.1517564 L28.1585238,66.8686183 C32.4768781,69.5416862 35.0549581,74.1606557 35.0549581,79.2248244 C35.0549581,83.1039813 33.5438152,86.7510539 30.8000952,89.4936768 C28.0563752,92.2362998 24.4085466,93.7468384 20.5283066,93.7468384 C20.2642666,93.7468384 19.9971809,93.7398126 19.7336095,93.7259953 C12.2887124,93.3344262 6.25960379,87.1875878 6.00821522,79.7318501 C5.8329695,74.5358314 8.47219808,69.6070258 12.8959809,66.8686183 L15.6694552,65.1517564 L15.6694552,56 L25.3850495,56 Z" fill="#60B8F2" id="Layer-2" stroke="#263238"/><path d="M49.030245,40.17 L99.1183265,11.83" fill="#E2F3FB" id="Layer-3" stroke="#2C84E9"/><polyline id="Layer-4" points="91.680187 7.74154389 89.3601646 18.1490006 99.8721131 21.4320848" stroke="#2C84E9"/><polyline id="Layer-5" points="48.3712416 30.5142865 58.7283159 33.7490006 56.3736012 44.3120848" stroke="#2C84E9"/><path d="M98.681337,38.5717503 L49.4672345,13.4282497" fill="#E2F3FB" id="Layer-6" stroke="#2C84E9"/><polyline id="Layer-7" points="48.3712416 21.4857135 58.7283159 18.2509994 56.3736012 7.68791522" stroke="#2C84E9"/><polyline id="Layer-8" points="91.680187 44.2584561 89.3601646 33.8509994 99.8721131 30.5679152" stroke="#2C84E9"/><path d="M74.0742857,52 L74.0742857,0" fill="#E2F3FB" id="Layer-9" stroke="#2C84E9"/><polyline id="Layer-10" points="65.9771429 2.18725735 74.0141948 9.36 82.1714286 2.08" stroke="#2C84E9"/><polyline id="Layer-11" points="65.9771429 48.7727427 74.0141948 41.6 82.1714286 48.88" stroke="#2C84E9"/></g></g></g></svg>